<svg height="512pt" viewBox="-96 0 512 512.00038" width="512pt" xmlns="http://www.w3.org/2000/svg"><path d="m320 160c0-88.226562-71.773438-160-160-160s-160 71.773438-160 160c0 51.03125 24.011719 96.554688 61.332031 125.871094v130.128906c0 5.425781 2.203125 10.613281 6.105469 14.382812l78.667969 76c7.75 7.488282 20.039062 7.488282 27.792969 0l78.664062-76c3.902344-3.769531 6.105469-8.957031 6.105469-14.382812v-130.128906c37.320312-29.316406 61.332031-74.839844 61.332031-125.871094zm-280 0c0-66.167969 53.832031-120 120-120s120 53.832031 120 120-53.832031 120-120 120-120-53.832031-120-120zm178.667969 247.511719-58.667969 56.679687-58.667969-56.679687v-98.652344c37.535157 14.84375 79.726563 14.875 117.335938 0zm0 0"/><path d="m151.445312 248.078125c5.398438 2.554687 11.671876 2.570313 17.105469 0 75.21875-35.585937 86.449219-76.722656 86.449219-98.078125 0-33.644531-25.257812-60-57.5-60-16.164062 0-28.632812 5.28125-37.5 11.152344-8.867188-5.871094-21.335938-11.152344-37.5-11.152344-32.242188 0-57.5 26.355469-57.5 60 0 21.355469 11.230469 62.492188 86.445312 98.078125zm-28.945312-118.078125c12.929688 0 20.171875 8.328125 21.214844 9.621094 3.613281 5.515625 9.503906 8.574218 16.109375 8.703125 6.671875.109375 12.738281-3.394531 16.5625-8.855469.066406-.09375 7.476562-9.46875 21.113281-9.46875 11.488281 0 17.5 10.0625 17.5 20 0 18.472656-20.375 39.691406-55 57.683594-34.621094-17.992188-55-39.210938-55-57.683594 0-9.9375 6.011719-20 17.5-20zm0 0"/></svg>