<svg height="448pt" viewBox="0 -3 448 447" width="448pt" xmlns="http://www.w3.org/2000/svg"><path d="m347.105469 144.5h-70.792969c-10.40625.023438-19.632812-6.683594-22.824219-16.585938l-21.878906-67.335937c-1.082031-3.28125-4.144531-5.5-7.601563-5.5-3.457031 0-6.519531 2.21875-7.601562 5.5l-21.878906 67.328125c-3.191406 9.914062-12.425782 16.621094-22.839844 16.59375h-70.792969c-3.46875-.003906-6.546875 2.226562-7.621093 5.527344-1.070313 3.300781.105468 6.917968 2.917968 8.953125l57.273438 41.597656c8.429687 6.101563 11.953125 16.945313 8.71875 26.832031l-21.871094 67.328125c-1.078125 3.296875.089844 6.914063 2.894531 8.953125 2.804688 2.042969 6.601563 2.046875 9.410157.007813l57.269531-41.597657c8.410156-6.136718 19.816406-6.136718 28.226562 0l57.269531 41.597657c2.804688 2.035156 6.601563 2.03125 9.40625-.007813 2.800782-2.039062 3.972657-5.648437 2.898438-8.945312l-21.871094-67.324219c-3.234375-9.886719.292969-20.730469 8.71875-26.824219l57.273438-41.601562c2.824218-2.03125 4.015625-5.65625 2.941406-8.964844s-4.167969-5.546875-7.644531-5.53125zm0 0"/><path d="m448 56.5c-.035156-30.914062-25.085938-55.964844-56-56h-336c-30.914062.035156-55.9648438 25.085938-56 56v256c.0351562 30.914062 25.085938 55.964844 56 56h32c2.65625 0 5.136719 1.316406 6.625 3.511719 1.488281 2.199219 1.792969 4.992187.808594 7.457031l-24.410156 61.03125 149.535156-71.199219c1.074218-.519531 2.25-.792969 3.441406-.800781h168c30.914062-.035156 55.964844-25.085938 56-56zm-86.785156 115.414062-57.269532 41.601563c-2.808593 2.035156-3.984374 5.648437-2.914062 8.945313l21.878906 67.335937c3.332032 9.886719-.210937 20.789063-8.71875 26.832031-8.375 6.226563-19.839844 6.226563-28.214844 0l-57.273437-41.601562c-2.804687-2.039063-6.601563-2.039063-9.40625 0l-57.273437 41.601562c-8.410157 6.113282-19.804688 6.113282-28.214844.003906-8.414063-6.113281-11.933594-16.945312-8.71875-26.835937l21.878906-67.328125c1.074219-3.300781-.101562-6.917969-2.914062-8.953125l-57.269532-41.601563c-8.414062-6.109374-11.933594-16.945312-8.71875-26.832031 3.214844-9.890625 12.429688-16.585937 22.828125-16.582031h70.792969c3.464844 0 6.535156-2.226562 7.609375-5.519531l21.871094-67.335938c3.207031-9.898437 12.425781-16.605469 22.832031-16.605469s19.625 6.707032 22.832031 16.605469l21.871094 67.335938c1.074219 3.292969 4.144531 5.519531 7.609375 5.519531h70.792969c10.398437-.003906 19.613281 6.691406 22.828125 16.582031 3.214844 9.886719-.304688 20.722657-8.71875 26.832031zm0 0"/></svg>