<svg height="512pt" viewBox="-56 0 512 512.002" width="512pt" xmlns="http://www.w3.org/2000/svg"><path d="m252.476562 311.941406c-.96875-10.910156-8.445312-20.167968-18.691406-24.039062l-31.402344-11.867188 28.019532-11.210937c10.359375-4.144531 17.128906-13.628907 17.660156-24.75.492188-10.25-4.605469-19.921875-13.113281-25.234375-1.132813-1.039063-3.746094-3.460938-9.730469-9.101563-6.039062-5.6875-9.46875-13.617187-9.46875-21.910156v-50.433594c-9.851562 1.097657-19.789062 1.140625-29.652344.128907l-1.253906-.128907v50.4375c0 16.808594 6.945312 32.878907 19.183594 44.40625 5.394531 5.078125 8.457031 7.964844 10.382812 9.699219l-30.078125 12.035156c-10.699219 4.28125-17.597656 14.40625-17.691406 25.890625-.097656 11.960938 7.644531 22.597657 18.832031 26.824219l31.894532 12.050781-33.820313 15.835938c-10.859375 5.082031-17.765625 16.320312-16.71875 28.261719 1.003906 11.453124 8.691406 21 19.710937 24.414062l30.675782 9.503906-34.847656 18.6875c-10.632813 5.699219-16.921876 17.398438-15.132813 29.328125 1.710937 11.390625 9.980469 20.449219 21.226563 23.167969l26.644531 6.441406-18.152344 13.503906c-6.890625 5.128907-8.628906 15.183594-3.429687 22.023438 3.035156 3.988281 7.640624 6.097656 12.308593 6.097656 3.207031 0 6.441407-.996094 9.214844-3.058594l21.035156-15.652343c9.621094-5.730469 14.882813-16.425781 13.492188-27.636719-1.464844-11.773438-10.402344-21.257812-21.9375-24.042969l-24.910157-6.023437 34.324219-18.40625c9.703125-5.199219 15.90625-15.425782 15.382813-26.421875-.570313-11.9375-8.480469-22.078125-19.792969-25.582031l-30.160156-9.34375 33.894531-15.867188c10.707031-5.015625 17.160156-16.140625 16.101562-28.027344zm0 0"/><path d="m374.292969 11.632812-172.105469-11.570312c-.628906-.0429688-1.257812-.0625-1.886719-.0625-.632812 0-1.261719.0195312-1.890625.0625l-172.105468 11.570312c-14.804688.992188-26.304688 13.292969-26.304688 28.132813v23.863281c0 14.839844 11.5 27.140625 26.304688 28.136719l172.105468 11.566406c.628906.042969 1.257813.0625 1.890625.0625.628907 0 1.257813-.019531 1.886719-.0625l172.105469-11.566406c14.804687-.996094 26.304687-13.296875 26.304687-28.136719v-23.863281c0-14.839844-11.5-27.140625-26.304687-28.132813zm0 0"/></svg>