<?xml version="1.0" encoding="iso-8859-1"?>
<!-- Generator: Adobe Illustrator 19.0.0, SVG Export Plug-In . SVG Version: 6.00 Build 0)  -->
<svg version="1.1" id="Capa_1" xmlns="http://www.w3.org/2000/svg" xmlns:xlink="http://www.w3.org/1999/xlink" x="0px" y="0px"
	 viewBox="0 0 512.006 512.006" style="enable-background:new 0 0 512.006 512.006;" xml:space="preserve">
<g>
	<g>
		<circle cx="132.884" cy="237.127" r="61.562"/>
	</g>
</g>
<g>
	<g>
		<path d="M271.152,177.455c0.495-9.25,2.594-30.806,11.468-54.576c15.244-40.831,42.568-68.959,81.211-83.604l-10.631-28.054
			c-22.659,8.586-42.369,21.32-58.734,37.742c-0.002-0.006-0.004-0.013-0.006-0.019c-4.02-12.28-11.6-26.091-25.851-36.051
			c-26.051-18.211-64.832-17.131-115.264,3.23l-14.12,5.7l5.91,14.03c1.16,2.74,28.801,67.172,77.602,77.402
			c4.47,0.93,8.94,1.4,13.4,1.4c6.2,0,12.38-0.9,18.551-2.72c0.003-0.001,0.006-0.002,0.008-0.003
			c-0.192,0.511-0.393,1.015-0.582,1.529c-10.375,28.271-12.556,53.393-13.004,63.93c-26.803,6.659-46.671,30.873-46.671,59.736
			c0,33.998,27.561,61.559,61.559,61.559c33.998,0,61.559-27.561,61.559-61.559C317.559,208.361,297.822,184.207,271.152,177.455z"
			/>
	</g>
</g>
<g>
	<g>
		<circle cx="379.122" cy="237.127" r="61.562"/>
	</g>
</g>
<g>
	<g>
		<circle cx="194.436" cy="343.751" r="61.562"/>
	</g>
</g>
<g>
	<g>
		<circle cx="317.56" cy="343.751" r="61.562"/>
	</g>
</g>
<g>
	<g>
		<circle cx="255.998" cy="450.444" r="61.562"/>
	</g>
</g>
<g>
</g>
<g>
</g>
<g>
</g>
<g>
</g>
<g>
</g>
<g>
</g>
<g>
</g>
<g>
</g>
<g>
</g>
<g>
</g>
<g>
</g>
<g>
</g>
<g>
</g>
<g>
</g>
<g>
</g>
</svg>
