<?xml version="1.0" encoding="utf-8"?>
<!-- Generator: Adobe Illustrator 22.0.1, SVG Export Plug-In . SVG Version: 6.00 Build 0)  -->
<svg version="1.1" id="Layer_1" xmlns="http://www.w3.org/2000/svg" xmlns:xlink="http://www.w3.org/1999/xlink" x="0px" y="0px"
	 viewBox="0 0 512 512" style="enable-background:new 0 0 512 512;" xml:space="preserve">
<path d="M414.1,114.6l26.1-32.1L384,70.3l10.9,39.5C401.5,110.2,408,111.9,414.1,114.6z M414,130.4c-1.3-0.3-2.4-1-3.3-1.9
	c-21.1-11.1-47.1-2.9-58.2,18.2c-3.2,6.2-4.9,13.1-4.9,20c0,98.7-80.3,179.1-179.1,179.1c-23.8-0.1-43.2,19.1-43.3,42.9
	c-0.1,23.8,19.1,43.2,42.9,43.3c0.1,0,0.3,0,0.4,0c146.3,0,265.3-119,265.3-265.3C433.8,152,426.3,138.4,414,130.4z M71.8,386.6
	l15.4,55.2l29.8-28.1c-2.8-5.8-4.6-12.1-5.3-18.5L71.8,386.6z"/>
</svg>
