<?xml version="1.0" encoding="iso-8859-1"?>
<!-- Generator: Adobe Illustrator 19.0.0, SVG Export Plug-In . SVG Version: 6.00 Build 0)  -->
<svg version="1.1" id="Layer_1" xmlns="http://www.w3.org/2000/svg" xmlns:xlink="http://www.w3.org/1999/xlink" x="0px" y="0px"
	 viewBox="0 0 330 330" style="enable-background:new 0 0 330 330;" xml:space="preserve">
<g id="XMLID_108_">
	<path id="XMLID_109_" d="M315,149.999H15c-8.284,0-15,6.716-15,15c0,59.265,31.413,111.324,78.457,140.423
		c-2.158,2.598-3.457,5.935-3.457,9.577c0,8.284,6.716,15,15,15h150c8.284,0,15-6.716,15-15c0-3.642-1.299-6.979-3.457-9.577
		C298.587,276.323,330,224.264,330,164.999C330,156.715,323.284,149.999,315,149.999z"/>
	<path id="XMLID_110_" d="M105.608,4.394c-5.857-5.859-15.356-5.857-21.214-0.001C76.209,12.579,64.997,23.789,65,44.999
		c-0.003,21.213,11.207,32.422,19.393,40.606C91.748,92.961,95,96.568,95,105c0,8.284,6.716,15,15,15s15-6.716,15-15
		c0-21.215-11.21-32.424-19.396-40.608C98.25,57.038,94.999,53.432,95,44.999c-0.001-8.43,3.251-12.037,10.607-19.393
		C111.466,19.749,111.466,10.252,105.608,4.394z"/>
	<path id="XMLID_138_" d="M175.608,4.394c-5.857-5.859-15.356-5.857-21.214-0.001c-8.186,8.185-19.397,19.395-19.395,40.606
		c-0.003,21.213,11.207,32.422,19.393,40.606C161.748,92.961,165,96.568,165,105c0,8.284,6.716,15,15,15s15-6.716,15-15
		c0-21.215-11.21-32.424-19.395-40.608c-7.355-7.354-10.606-10.96-10.605-19.393c-0.001-8.43,3.251-12.037,10.607-19.393
		C181.466,19.749,181.466,10.252,175.608,4.394z"/>
	<path id="XMLID_169_" d="M245.608,4.394c-5.857-5.859-15.356-5.857-21.214-0.001c-8.186,8.185-19.397,19.395-19.395,40.606
		c-0.003,21.213,11.207,32.422,19.393,40.606C231.748,92.961,235,96.568,235,105c0,8.284,6.716,15,15,15c8.284,0,15-6.716,15-15
		c0-21.215-11.21-32.424-19.395-40.608c-7.355-7.354-10.606-10.96-10.605-19.393c-0.001-8.43,3.251-12.037,10.607-19.393
		C251.466,19.749,251.466,10.252,245.608,4.394z"/>
</g>
<g>
</g>
<g>
</g>
<g>
</g>
<g>
</g>
<g>
</g>
<g>
</g>
<g>
</g>
<g>
</g>
<g>
</g>
<g>
</g>
<g>
</g>
<g>
</g>
<g>
</g>
<g>
</g>
<g>
</g>
</svg>
