<svg height="512pt" viewBox="0 0 512 512" width="512pt" xmlns="http://www.w3.org/2000/svg"><path d="m174.328125 397.503906c19.949219 11.558594 42.5625 19.015625 66.671875 21.21875v-28.714844c-22.550781-6.519531-39.089844-27.335937-39.089844-51.957031 0-24.621093 16.539063-45.4375 39.089844-51.957031v-192.820312c-24.109375 2.207031-46.71875 9.660156-66.671875 21.222656zm0 0"/><path d="m337.671875 114.496094c-19.953125-11.5625-42.566406-19.015625-66.671875-21.222656v192.820312c22.546875 6.519531 39.089844 27.335938 39.089844 51.957031 0 24.621094-16.542969 45.4375-39.089844 51.957031v28.714844c24.105469-2.203125 46.71875-9.660156 66.671875-21.21875zm0 0"/><path d="m367.671875 136.804688v238.386718c31.824219-29.835937 51.746094-72.226562 51.746094-119.191406s-19.921875-89.355469-51.746094-119.195312zm0 0"/><path d="m144.328125 136.804688c-31.828125 29.839843-51.75 72.230468-51.75 119.195312s19.921875 89.355469 51.75 119.191406zm0 0"/><path d="m511.996094 256c0-141.160156-114.839844-256-255.996094-256-141.160156 0-256 114.839844-256 256 0 86.789062 43.421875 163.617188 109.671875 209.933594l-15.574219 22.539062c-4.707031 6.8125-3 16.15625 3.8125 20.867188 2.605469 1.796875 5.574219 2.660156 8.515625 2.660156 4.761719 0 9.441407-2.261719 12.355469-6.472656l16.476562-23.847656c35.992188 19.335937 77.105469 30.320312 120.742188 30.320312s84.75-10.984375 120.742188-30.320312l16.476562 23.847656c2.910156 4.210937 7.589844 6.472656 12.355469 6.472656 2.9375 0 5.910156-.863281 8.511719-2.660156 6.816406-4.710938 8.523437-14.054688 3.8125-20.867188l-15.574219-22.539062c66.25-46.316406 109.671875-123.144532 109.671875-209.933594zm-255.996094 193.417969c-106.652344 0-193.421875-86.765625-193.421875-193.417969s86.769531-193.421875 193.421875-193.421875 193.417969 86.769531 193.417969 193.421875-86.765625 193.417969-193.417969 193.417969zm0 0"/><path d="m231.910156 338.050781c0 13.28125 10.804688 24.089844 24.089844 24.089844 13.28125 0 24.089844-10.808594 24.089844-24.089844 0-13.285156-10.808594-24.089843-24.089844-24.089843-13.285156 0-24.089844 10.804687-24.089844 24.089843zm0 0"/></svg>