<svg height="512pt" viewBox="-106 0 512 512" width="512pt" xmlns="http://www.w3.org/2000/svg"><path d="m220 210v75h80v-75c-33.375 0-46.640625 0-80 0zm0 0"/><path d="m0 379.085938v2.890624l51.679688-34.457031c5.039062-3.367187 11.601562-3.367187 16.640624 0l36.679688 24.449219 36.679688-24.449219c5.039062-3.367187 11.601562-3.367187 16.640624 0l36.679688 24.449219 36.679688-24.449219c5.039062-3.367187 11.601562-3.367187 16.640624 0l51.679688 34.453125v-66.972656h-300zm0 0"/><path d="m80 180v-75c-33.339844 0-46.640625 0-80 0v75zm0 0"/><path d="m220 105v75h80v-75c-33.375 0-46.640625 0-80 0zm0 0"/><path d="m80 210c-33.339844 0-46.640625 0-80 0v75h80zm0 0"/><path d="m80 75v-75h-65c-8.289062 0-15 6.710938-15 15v60zm0 0"/><path d="m110 0h80v75h-80zm0 0"/><path d="m287.988281 58.8125c-23.628906-4.804688-41.996093-23.171875-46.800781-46.800781-1.421875-6.988281-7.558594-12.011719-14.695312-12.011719h-6.492188v75h80v-1.492188c0-7.136718-5.023438-13.273437-12.011719-14.695312zm0 0"/><path d="m203.320312 402.480469c-5.039062 3.367187-11.601562 3.367187-16.640624 0l-36.679688-24.449219-36.679688 24.449219c-5.039062 3.367187-11.601562 3.367187-16.640624 0l-36.679688-24.449219-60 40v78.96875c0 8.289062 6.710938 15 15 15h270c8.289062 0 15-6.710938 15-15v-78.972656l-60-39.996094zm0 0"/><path d="m110 210h80v75h-80zm0 0"/><path d="m110 105h80v75h-80zm0 0"/></svg>