<?xml version="1.0" encoding="utf-8"?>
<!-- Generator: Adobe Illustrator 22.0.1, SVG Export Plug-In . SVG Version: 6.00 Build 0)  -->
<svg version="1.1" id="Layer_1" xmlns="http://www.w3.org/2000/svg" xmlns:xlink="http://www.w3.org/1999/xlink" x="0px" y="0px"
	 viewBox="0 0 512 512" style="enable-background:new 0 0 512 512;" xml:space="preserve">
<path d="M439.7,255.7c-35.2-15.2-64.6-40.3-85.1-72.6c-27.8-43.5-88.6-73.8-159.2-73.8C98.5,109.4,20,166.2,20,236.2l0.6,104.5
	C34,494.3,348.2,476.3,389.6,476.3c60.8,0,110.1-33.5,110.1-74.7v-94.4C499.7,287.2,470.4,269,439.7,255.7z M377.8,263l-59,81.6
	c-25.3-0.5-56.3-2.1-88-6l94.6-131.3C339.8,228.9,357.5,247.7,377.8,263z M217,148.3c28.5,3,54.4,11.9,74.6,25.1L178.9,330.1
	c-27.4-6-53.1-14.3-73.8-25.8L217,148.3z M157.1,150.9L69.2,273.3c-7.2-10.7-11.4-22.9-11.4-37C57.8,196.5,100.4,161.9,157.1,150.9z
	 M458,317.9c-9.2,13-33.9,26.3-68.4,26.3c-2.9,0-7.1,0.1-12.3,0.2l41.2-57c2.1,1,4.1,2.1,6.3,3c16.2,7,25.9,12.9,31.5,17
	C459.6,309.8,460.4,314.5,458,317.9z"/>
</svg>
